# xmcd
#
# Track frame offsets: 
#        150
#        23451
#        39670
#        70668
#        98510
#        113062
#        135137
#        158247
#        172797
#        187805
#        201613
#        214166
#        227532
#        246654
#        270687
#        299762
#        320270
#
# Disc length: 4636 seconds
#
# Revision: 0
# Processed by: cddbd v1.4PL0 Copyright (c) Steve Scherf et al.
# Submitted via: ExactAudioCopy v0.90b4
#
DISCID=e8121a11
DTITLE=Peter Green - Soho Live
DYEAR=1900
DGENRE=Blues
TTITLE0=It Takes Time
TTITLE1=Homework
TTITLE2=Black Magic Woman
TTITLE3=Hey Mama Keep Your Big Mouth Shut
TTITLE4=The Supernatural
TTITLE5=Rattlesnake Shake
TTITLE6=Shake Your Hips
TTITLE7=Albatross
TTITLE8=Travelling Riverside Blues
TTITLE9=Steady Rollin' Man
TTITLE10=Honeymoon Blues
TTITLE11=Last Fair Deal Gone Down
TTITLE12=If I Had Possession Over Judgement Day
TTITLE13=Green Manalishi
TTITLE14=Goin' Down
TTITLE15=Help Me
TTITLE16=Look On Yonder Wall
EXTD=
EXTT0=
EXTT1=
EXTT2=
EXTT3=
EXTT4=
EXTT5=
EXTT6=
EXTT7=
EXTT8=
EXTT9=
EXTT10=
EXTT11=
EXTT12=
EXTT13=
EXTT14=
EXTT15=
EXTT16=
PLAYORDER=
